<svg xmlns="http://www.w3.org/2000/svg" width="503" height="150" fill="none" viewBox="0 0 503 150">
  <path fill="#000" d="M22.51 22.5h60v60h-60v-60z"/>
  <path fill="#fff" d="M29.99 71.16h22.5v3.75h-22.5v-3.75zM38 30h4.54l9.58 22.53H47l-2.05-5h-9.5l-2.05 5h-5L38 30zm5.18 13.17l-3-7.25-3 7.25h6zM51.3 41.37v-.06a11.531 11.531 0 0111.83-11.73 11.73 11.73 0 018.95 3.49l-3.18 3.67a8.36 8.36 0 00-5.8-2.56c-3.83 0-6.58 3.17-6.58 7.06v.07c0 3.89 2.69 7.13 6.58 7.13 2.59 0 4.18-1 6-2.66L72.24 49a11.629 11.629 0 01-9.3 4A11.449 11.449 0 0151.3 41.37"/>
  <path fill="#000" d="M126.26 22.52h12.1l25.55 60.05H150.2l-5.45-13.37h-25.22l-5.45 13.37h-13.37l25.55-60.05zm13.8 35.1l-7.92-19.34-7.92 19.34h15.84zM166.68 36.92h12.95v6.56c3.15-4.26 7.49-7.41 14.22-7.41 10.65 0 20.78 8.34 20.78 23.59v.17c0 15.25-10 23.59-20.78 23.59a17.517 17.517 0 01-14.22-6.81V96.2h-12.95V36.92zm35 22.91v-.17c0-7.58-5.11-12.61-11.16-12.61s-11.07 5-11.07 12.61v.17c0 7.58 5 12.61 11.07 12.61s11.17-4.94 11.17-12.61h-.01zM219.4 36.92h12.94v6.56c3.15-4.26 7.5-7.41 14.23-7.41 10.64 0 20.78 8.34 20.78 23.59v.17c0 15.25-10 23.59-20.78 23.59a17.549 17.549 0 01-14.23-6.81V96.2H219.4V36.92zm35 22.91v-.17c0-7.58-5.11-12.61-11.16-12.61s-11.07 5-11.07 12.61v.17c0 7.58 5 12.61 11.07 12.61s11.16-4.94 11.16-12.61zM271.6 52.93v-.17c0-16.95 12.77-30.83 31.09-30.83 11.24 0 18 3.75 23.5 9.2l-8.34 9.62c-4.6-4.17-9.29-6.73-15.25-6.73-10.05 0-17.29 8.35-17.29 18.57v.17c0 10.22 7.07 18.74 17.29 18.74 6.82 0 11-2.73 15.67-7l8.35 8.5c-6.13 6.55-12.95 10.64-24.44 10.64-17.55-.05-30.58-13.59-30.58-30.71zM327.39 60v-.17c0-13.12 10.56-23.76 24.78-23.76s24.62 10.47 24.62 23.59v.17c0 13.12-10.57 23.76-24.79 23.76-14.22 0-24.61-10.47-24.61-23.59zM364 60v-.17c0-6.73-4.85-12.61-12-12.61-7.41 0-11.84 5.71-11.84 12.44v.17c0 6.73 4.86 12.61 12 12.61 7.42 0 11.84-5.71 11.84-12.44zM380.87 59.83v-.17c0-15.25 10-23.59 20.78-23.59a17.549 17.549 0 0114.23 6.81V20.39h12.94v62.18h-12.94V76c-3.15 4.26-7.5 7.41-14.23 7.41-10.65.01-20.78-8.33-20.78-23.58zm35.18 0v-.17c0-7.58-5-12.61-11.07-12.61S393.82 52 393.82 59.66v.17c0 7.58 5.11 12.61 11.16 12.61s11.07-5.03 11.07-12.61zM433.76 60v-.17c0-13 9.29-23.76 22.57-23.76 15.25 0 22.23 11.84 22.23 24.78 0 1-.08 2.22-.17 3.41h-31.77c1.28 5.88 5.37 8.94 11.16 8.94 4.34 0 7.49-1.36 11.07-4.68l7.41 6.56c-4.26 5.28-10.39 8.51-18.65 8.51-13.71 0-23.85-9.59-23.85-23.59zM466 56.17c-.77-5.79-4.18-9.71-9.63-9.71-5.45 0-8.86 3.83-9.88 9.71H466zM107.54 124.44v3.07h-2.39v-22.63h2.39v9.83a7.192 7.192 0 016.14-3.57c3.84 0 7.65 3 7.65 8.31v.06c0 5.24-3.78 8.34-7.65 8.34a7.223 7.223 0 01-6.14-3.41zm11.35-4.9v-.06c0-3.78-2.61-6.2-5.65-6.2a6 6 0 00-5.8 6.17v.06a5.997 5.997 0 005.8 6.2c3.1 0 5.65-2.29 5.65-6.17zM136.55 111.48h2.54L132.37 128c-1.37 3.32-2.92 4.52-5.34 4.52a7.266 7.266 0 01-3.41-.8l.81-1.89a5 5 0 002.51.59c1.43 0 2.33-.75 3.29-3l-7.29-16h2.64l5.82 13.36 5.15-13.3zM150.47 124l1.76-1.52c1.34 2 2.7 3.1 5 3.1 2.45 0 4.24-1.77 4.24-5.21v-14.56h2.48v14.51a7.831 7.831 0 01-2 5.7 6.651 6.651 0 01-4.77 1.8 7.428 7.428 0 01-6.71-3.82zM168.35 119.54v-.06c0-4.62 3.25-8.34 7.69-8.34 4.74 0 7.47 3.78 7.47 8.46.016.26.016.52 0 .78h-12.74a5.597 5.597 0 005.64 5.43 6.612 6.612 0 005.05-2.27l1.49 1.34a8.282 8.282 0 01-6.6 3 8 8 0 01-8-8.34zm12.74-.93c-.25-2.91-1.92-5.45-5.11-5.45-2.79 0-4.9 2.32-5.21 5.45h10.32zM187.94 123.26v-9.67h-2.23v-2.11h2.23v-4.84h2.39v4.84h5.08v2.11h-5.08V123a2.37 2.37 0 002.7 2.67 5.06 5.06 0 002.32-.56v2a6.073 6.073 0 01-2.88.68c-2.58 0-4.53-1.27-4.53-4.53zM199.33 105.81h9.24a7.998 7.998 0 015.68 1.92 4.812 4.812 0 011.39 3.47v.06a5.242 5.242 0 01-3.44 5c2.57.77 4.65 2.26 4.65 5.24v.06c0 3.72-3.13 5.92-7.87 5.92h-9.65v-21.67zm13.83 5.73c0-2.14-1.7-3.53-4.8-3.53h-6.61v7.47h6.42c2.94 0 5-1.33 5-3.88l-.01-.06zm-4.56 6.11h-6.85v7.66H209c3.28 0 5.33-1.46 5.33-3.88v-.06c.04-2.37-1.94-3.72-5.73-3.72zM221.38 111.48h2.39v4.19a6.852 6.852 0 012.56-3.274 6.851 6.851 0 013.98-1.196v2.58h-.19c-3.5 0-6.35 2.51-6.35 7.34v6.39h-2.39v-16.03zM232.22 122.86v-.06c0-3.38 2.79-5.18 6.85-5.18a17.125 17.125 0 014.93.68v-.56c0-2.88-1.77-4.37-4.78-4.37-1.689.02-3.35.423-4.86 1.18l-.72-2a13.218 13.218 0 015.83-1.34 7.003 7.003 0 015.18 1.77 6.317 6.317 0 011.64 4.68v9.8H244v-2.42a7.005 7.005 0 01-5.8 2.76c-2.98.05-5.98-1.65-5.98-4.94zm11.78-1.24v-1.55a16.802 16.802 0 00-4.71-.68c-3 0-4.69 1.3-4.69 3.32v.06c0 2 1.87 3.19 4 3.19 3.01.04 5.4-1.8 5.4-4.34zM251.11 105.34h2.73V108h-2.73v-2.66zm.16 6.14h2.38v16h-2.38v-16zM258.81 111.48h2.39v2.79a6.09 6.09 0 015.49-3.13c3.88 0 6.14 2.6 6.14 6.42v10h-2.39v-9.36c0-3-1.61-4.84-4.43-4.84a4.709 4.709 0 00-3.5 1.447 4.722 4.722 0 00-1.31 3.553v9.18h-2.39v-16.06zM276.29 125.46l1.2-1.7a9.399 9.399 0 005.55 2c1.93 0 3.32-1 3.32-2.55v-.06c0-1.61-1.89-2.23-4-2.82-2.51-.71-5.3-1.58-5.3-4.53v-.06c0-2.76 2.3-4.59 5.46-4.59 2.048.037 4.044.65 5.76 1.77l-1.08 1.8a9.076 9.076 0 00-4.74-1.55c-1.9 0-3.1 1-3.1 2.32v.06c0 1.52 2 2.11 4.12 2.76 2.48.75 5.15 1.71 5.15 4.59v.1c0 3-2.52 4.8-5.71 4.8a11.006 11.006 0 01-6.63-2.34z"/>
</svg>
